<?xml version="1.0" standalone="no"?>
<!DOCTYPE svg PUBLIC "-//W3C//DTD SVG 20010904//EN"
 "http://www.w3.org/TR/2001/REC-SVG-20010904/DTD/svg10.dtd">
<svg version="1.0" xmlns="http://www.w3.org/2000/svg"
 width="614.000000pt" height="634.000000pt" viewBox="0 0 614.000000 634.000000"
 preserveAspectRatio="xMidYMid meet">
<metadata>
Created by potrace 1.16, written by Peter Selinger 2001-2019
</metadata>
<g transform="translate(0.000000,634.000000) scale(0.100000,-0.100000)"
fill="#000000" stroke="none">
<path d="M2725 5089 c-170 -99 -572 -331 -893 -516 l-583 -337 3 -115 3 -115
320 -184 c376 -217 1628 -940 1764 -1019 51 -30 89 -59 85 -63 -10 -10 -371
-220 -378 -220 -6 0 -536 305 -1476 850 -168 97 -308 174 -313 170 -4 -3 -6
-107 -5 -230 l3 -223 545 -314 c300 -173 701 -405 893 -515 191 -110 353 -198
361 -195 7 3 179 101 381 217 203 117 378 216 389 222 18 7 53 -9 206 -98 102
-58 188 -109 192 -113 4 -4 -63 -48 -150 -98 -352 -204 -988 -570 -1008 -581
-18 -10 -44 3 -195 90 -738 427 -1610 928 -1615 928 -2 0 -4 -103 -4 -230 0
-228 0 -229 22 -241 13 -6 399 -229 858 -494 459 -265 853 -493 876 -505 l40
-23 325 187 c178 103 582 337 897 519 l573 331 -3 115 -3 114 -95 55 c-98 56
-1067 616 -1709 987 -200 115 -363 215 -362 220 1 8 164 107 337 204 l40 22
860 -496 c472 -273 874 -506 892 -517 25 -15 33 -17 37 -6 3 7 4 112 3 232
l-3 218 -255 147 c-1153 666 -1532 882 -1543 878 -7 -2 -185 -104 -396 -226
-211 -121 -387 -221 -392 -221 -8 0 -369 207 -381 219 -6 5 678 406 1122 658
l56 32 229 -133 c127 -73 304 -175 395 -228 558 -322 1161 -668 1165 -668 3 0
5 103 5 228 l0 229 -187 108 c-104 59 -506 291 -895 516 -388 225 -710 409
-715 409 -4 -1 -147 -82 -318 -181z"/>
</g>
</svg>
